<svg width="60" height="60" viewBox="0 0 60 60" fill="none" xmlns="http://www.w3.org/2000/svg">
<g clip-path="url(#clip0_440_6698)">
<path d="M41.0248 36.2844L47.7153 56.9672L30.2966 44.1651L30.0005 43.9475L29.7044 44.1651L12.2858 56.9672L18.9762 36.2844L19.0876 35.9402L18.7955 35.7268L1.37483 22.998H22.878H23.2427L23.3541 22.6508L30.0005 1.93933L36.6469 22.6508L36.7584 22.998H37.123H58.6239L41.2055 35.7268L40.9135 35.9402L41.0248 36.2844ZM39.6214 44.9321L36.2322 34.4158L45.1382 27.9015L46.3735 26.998H44.843H33.8402L30.4766 16.5177L30.0005 15.0343L29.5244 16.5177L26.1609 26.998H15.1555H13.6237L14.8605 27.9017L23.7763 34.416L20.3871 44.9321L19.9122 46.4057L21.1593 45.4882L30.0006 38.9836L38.8494 45.4883L40.096 46.4048L39.6214 44.9321Z" fill="white" stroke="#BBBBBB"/>
</g>
<defs>
<clipPath id="clip0_440_6698">
<rect width="60" height="60" fill="white"/>
</clipPath>
</defs>
</svg>
